<?xml version="1.0" standalone="no"?>
<!DOCTYPE svg PUBLIC "-//W3C//DTD SVG 20010904//EN"
 "http://www.w3.org/TR/2001/REC-SVG-20010904/DTD/svg10.dtd">
<svg version="1.0" xmlns="http://www.w3.org/2000/svg"
 width="803.000000pt" height="803.000000pt" viewBox="0 0 803.000000 803.000000"
 preserveAspectRatio="xMidYMid meet">
<metadata>
Created by potrace 1.14, written by Peter Selinger 2001-2017
</metadata>
<g transform="translate(0.000000,803.000000) scale(0.100000,-0.100000)"
fill="#000000" stroke="none">
<path d="M0 4015 l0 -4015 649 0 c722 0 655 -7 665 65 17 133 83 400 106 430
4 6 13 28 20 50 7 22 20 49 29 60 9 11 23 33 31 48 8 16 29 45 46 65 35 40 38
38 48 -28 14 -89 19 -111 27 -116 5 -3 9 -16 9 -29 0 -13 5 -27 10 -30 6 -3
10 -15 10 -26 0 -10 4 -27 9 -37 5 -9 19 -38 31 -64 13 -27 25 -48 27 -48 2 0
1 30 -2 68 -7 103 -24 411 -30 572 -3 80 -10 235 -16 345 -6 110 -15 290 -20
400 -5 110 -14 274 -19 365 -5 91 -12 262 -16 380 l-6 215 24 35 c13 19 41 45
63 57 36 21 53 23 184 23 l143 0 -5 27 c-3 16 -20 84 -36 153 -55 223 -75 362
-74 510 1 121 3 141 25 190 27 59 40 74 76 83 19 4 27 -4 58 -61 20 -37 54
-94 75 -128 22 -33 39 -73 39 -88 0 -15 8 -40 19 -54 14 -20 18 -39 15 -72 -5
-60 -13 -90 -22 -90 -5 0 -23 38 -41 84 -38 102 -100 198 -149 231 -45 31 -62
32 -62 4 0 -20 37 -63 90 -104 56 -44 90 -108 125 -240 34 -126 44 -174 60
-290 9 -66 19 -123 21 -127 7 -11 56 -10 73 1 9 6 11 16 7 27 -18 48 -37 177
-36 254 1 47 -2 105 -6 130 -4 26 -3 41 2 37 5 -5 9 -22 10 -39 1 -17 6 -33
10 -37 5 -3 15 -24 22 -46 19 -56 54 -125 75 -150 15 -16 17 -29 12 -64 l-7
-44 34 6 c31 5 41 -1 93 -45 l58 -49 71 2 c106 4 116 10 60 38 -26 13 -84 60
-129 105 -109 108 -158 202 -182 349 -26 157 -19 305 16 357 10 14 25 41 34
62 68 148 254 301 422 349 66 18 264 18 330 0 64 -18 189 -76 205 -96 7 -8 18
-15 24 -15 16 0 114 -103 158 -165 60 -84 81 -135 108 -265 24 -109 -21 -348
-81 -431 -10 -15 -19 -32 -19 -37 0 -21 -170 -182 -219 -207 -28 -14 -51 -30
-51 -35 0 -14 151 -12 176 3 49 28 174 161 174 185 0 5 7 15 15 22 9 7 23 29
32 49 9 20 20 38 23 41 4 3 13 26 21 53 7 26 17 47 23 47 5 0 17 10 28 22 15
18 18 30 12 53 -10 38 -10 102 -1 135 7 24 47 54 127 96 48 25 135 22 191 -5
104 -50 129 -83 129 -167 0 -24 4 -53 9 -66 5 -13 14 -41 21 -63 18 -59 34
-95 42 -95 5 0 8 -8 8 -17 1 -54 131 -224 209 -275 39 -24 55 -28 117 -28 78
0 99 10 59 28 -14 7 -25 16 -25 21 0 5 -11 12 -24 15 -34 8 -146 119 -194 191
-80 120 -134 372 -103 479 33 115 55 171 84 212 17 25 37 55 43 66 36 62 164
167 249 203 22 10 47 21 57 26 47 23 186 41 273 35 178 -12 310 -77 434 -214
66 -72 141 -186 141 -214 0 -9 5 -20 10 -23 6 -3 10 -24 10 -45 0 -21 5 -42
11 -46 21 -13 -11 -276 -45 -373 -44 -121 -167 -260 -285 -322 -53 -27 -41
-34 66 -38 l71 -2 68 61 c74 67 82 67 83 -10 1 -19 5 -30 9 -24 4 6 17 16 30
23 20 10 22 17 16 49 -4 20 -11 42 -15 48 -14 17 1 74 22 87 11 7 19 18 19 25
0 7 5 21 10 32 6 11 15 29 20 40 6 11 10 32 11 47 0 25 1 26 9 8 5 -11 9 -14
9 -7 1 6 5 12 10 12 14 0 22 -31 11 -45 -5 -7 -10 -23 -9 -36 2 -60 -11 -179
-26 -228 -19 -61 -13 -71 41 -71 l30 0 22 143 c11 78 25 160 31 182 43 180 81
275 127 317 16 15 48 43 70 63 45 38 61 73 38 82 -37 14 -128 -80 -172 -177
-12 -25 -30 -66 -41 -91 -12 -25 -21 -51 -21 -58 0 -11 -3 -11 -14 -2 -8 7
-17 34 -21 61 -6 43 -3 57 19 96 14 26 26 57 26 69 0 12 7 29 16 36 26 22 99
121 117 160 9 20 24 42 32 49 39 32 89 -74 99 -210 7 -80 -7 -220 -34 -365 -5
-27 -12 -70 -15 -95 -4 -25 -10 -54 -15 -65 -7 -20 -36 -134 -47 -187 l-5 -28
130 0 c145 0 184 -10 226 -60 42 -50 46 -87 35 -295 -5 -104 -14 -282 -19
-395 -5 -113 -14 -284 -20 -380 -10 -178 -20 -384 -39 -885 -7 -154 -16 -329
-22 -389 -5 -60 -7 -111 -4 -114 3 -3 5 2 5 10 0 9 7 18 15 22 8 3 15 11 15
18 0 7 11 35 25 62 14 27 39 90 55 140 17 50 33 97 36 105 3 10 7 11 19 1 17
-14 85 -151 115 -230 22 -59 65 -260 76 -353 l7 -57 648 0 649 0 0 4015 0
4015 -4015 0 -4015 0 0 -4015z m3409 998 c1 -13 5 -23 10 -23 12 0 20 -69 36
-345 10 -167 19 -254 28 -268 7 -11 28 -25 47 -31 33 -10 35 -14 38 -58 3 -41
6 -48 32 -56 36 -13 80 -9 91 9 5 8 9 35 9 62 0 26 4 47 9 47 16 0 30 55 41
168 14 134 19 190 19 216 1 11 4 16 8 13 3 -4 8 -46 10 -94 2 -49 8 -101 14
-117 5 -16 9 -56 9 -88 0 -71 10 -93 47 -103 34 -8 43 -21 43 -62 0 -57 16
-63 168 -63 75 0 187 -7 247 -16 61 -8 140 -17 177 -21 l68 -6 -35 -38 c-19
-22 -35 -48 -35 -59 0 -18 7 -20 60 -20 33 0 60 -4 60 -10 0 -5 -4 -10 -9 -10
-12 0 -114 -102 -158 -157 -40 -50 -116 -201 -134 -266 -15 -54 -10 -53 -104
-13 -64 27 -95 32 -95 16 0 -6 -27 -10 -60 -10 -56 0 -77 10 -47 24 11 6 -3 3
-55 -9 -9 -2 -41 -16 -72 -31 -46 -22 -58 -25 -71 -14 -8 7 -15 20 -15 29 0 9
-7 36 -15 59 -45 129 -156 283 -252 351 -50 34 -43 46 27 44 43 -1 60 2 60 11
0 27 -54 69 -138 107 -180 83 -167 68 -148 171 17 90 31 252 41 463 7 154 24
270 36 240 4 -11 8 -30 8 -42z m-636 -700 c45 -9 35 -43 -38 -125 -36 -39 -65
-75 -65 -79 0 -4 -28 -27 -62 -52 -108 -78 -227 -207 -268 -292 -8 -16 -20
-33 -27 -38 -7 -4 -10 -14 -7 -22 4 -8 1 -15 -6 -15 -9 0 -11 34 -6 138 3 75
8 148 11 162 3 14 8 43 11 65 8 51 17 61 61 70 19 3 43 10 52 15 9 5 34 16 56
25 118 49 131 58 189 140 15 22 23 26 45 20 14 -3 38 -9 54 -12z m364 -149
c-3 -3 -12 -4 -19 -1 -8 3 -5 6 6 6 11 1 17 -2 13 -5z m1856 -1 c-7 -2 -19 -2
-25 0 -7 3 -2 5 12 5 14 0 19 -2 13 -5z m574 -15 c28 -10 36 -10 42 1 6 10 22
0 62 -40 48 -48 101 -111 124 -149 5 -8 10 -73 12 -144 2 -128 2 -129 -18
-108 -10 12 -19 27 -19 35 0 7 -9 23 -20 35 -11 12 -20 27 -20 34 0 27 -190
228 -215 228 -20 0 -85 78 -79 94 10 25 80 32 131 14z m-680 -4 c-3 -3 -12 -4
-19 -1 -8 3 -5 6 6 6 11 1 17 -2 13 -5z m938 -873 c3 -5 1 -12 -5 -16 -5 -3
-10 1 -10 9 0 18 6 21 15 7z m10 -41 c3 -5 -1 -10 -10 -10 -9 0 -13 5 -10 10
3 6 8 10 10 10 2 0 7 -4 10 -10z m-3568 -72 c-3 -7 -5 -2 -5 12 0 14 2 19 5
13 2 -7 2 -19 0 -25z"/>
<path d="M4025 3630 c3 -5 15 -10 25 -10 10 0 22 5 25 10 4 6 -7 10 -25 10
-18 0 -29 -4 -25 -10z"/>
<path d="M2960 3759 c-148 -39 -173 -51 -242 -124 -54 -56 -68 -76 -68 -101 0
-61 21 -59 91 10 63 61 131 106 164 106 12 0 14 -6 9 -27 -4 -16 -11 -36 -15
-45 -25 -47 -2 -193 39 -245 23 -30 113 -53 209 -53 70 0 82 3 151 41 77 42
102 44 102 8 0 -19 2 -20 17 -8 23 20 63 109 63 142 0 15 5 27 12 27 6 0 40
-29 75 -64 55 -57 63 -62 63 -41 0 41 -40 104 -112 176 -111 111 -211 169
-333 195 -69 15 -174 16 -225 3z m160 -101 c11 -12 20 -31 20 -43 0 -32 -36
-65 -72 -65 -63 0 -89 61 -46 107 27 29 71 30 98 1z"/>
<path d="M4905 3755 c-86 -22 -132 -42 -196 -86 -85 -57 -201 -177 -228 -234
-36 -77 -19 -80 52 -9 35 35 69 64 75 64 7 0 12 -15 12 -32 0 -49 50 -140 85
-157 19 -9 68 -14 145 -15 l116 -1 67 44 c69 44 97 48 97 11 0 -28 15 -25 37
8 47 68 57 161 27 253 -9 27 -14 52 -11 55 13 13 111 -50 184 -119 28 -28 56
-46 62 -43 6 4 9 11 6 16 -3 4 2 13 10 20 19 16 10 32 -62 106 -58 60 -116 89
-248 123 -53 14 -167 12 -230 -4z m-45 -142 c0 -37 -27 -63 -65 -63 -34 0 -61
22 -50 40 9 14 98 59 108 53 4 -2 7 -16 7 -30z"/>
<path d="M5815 3170 c-3 -5 -1 -10 4 -10 6 0 11 5 11 10 0 6 -2 10 -4 10 -3 0
-8 -4 -11 -10z"/>
</g>
</svg>
